<?xml version="1.0" standalone="no"?>
<svg xmlns="http://www.w3.org/2000/svg" viewBox="0 0 261 66" width="261" height="66"><g fill="#8ba1ef" color="#8ba1ef" transform="translate(113.174 0) scale(0.7843138) "><svg width="44.0" height="51.0" x="0.0" y="0.0" viewBox="0 0 44 51"><path fill="currentColor" fill-rule="evenodd" d="M21.986 0L44 12.704v25.393L22.029 50.801.014 38.111 0 12.718 21.986 0zM22 7.428L6.43 16.425V34.42l15.599 8.996 15.555-9.01-.014-17.994L22 7.428zm-.001 5.403l10.907 6.302v12.561l-10.907 6.302-10.893-6.288-.015-12.575L22 12.83z"></path></svg></g><path fill="#3052ce" fill-rule="nonzero" d="M11.66 16.82L0 16.82L0 16.58L0.50 16.39Q1.01 16.20 1.14 15.92Q1.27 15.65 1.27 15.17L1.27 15.17L1.27 2.64Q1.27 2.16 1.13 1.87Q0.98 1.58 0.50 1.42L0.50 1.42L0 1.22L0 0.98L6.12 0.98L6.12 1.22L5.69 1.42Q5.23 1.58 5.06 1.88Q4.90 2.18 4.90 2.66L4.90 2.66L4.90 16.34L8.59 16.34Q9.48 16.34 9.90 15.91Q10.32 15.48 10.70 14.66L10.70 14.66L11.64 12.65L11.88 12.65L11.66 16.82ZM18.98 17.18L18.98 17.18Q17.16 17.18 15.82 16.43Q14.47 15.67 13.74 14.28Q13.01 12.89 13.01 11.02L13.01 11.02Q13.01 9.14 13.79 7.78Q14.57 6.41 15.92 5.66Q17.28 4.92 18.98 4.92L18.98 4.92Q20.69 4.92 22.03 5.65Q23.38 6.38 24.16 7.75Q24.94 9.12 24.94 11.02L24.94 11.02Q24.94 12.91 24.20 14.29Q23.47 15.67 22.14 16.43Q20.81 17.18 18.98 17.18ZM18.98 16.70L18.98 16.70Q19.82 16.70 20.33 16.22Q20.83 15.74 21.06 14.52Q21.29 13.30 21.29 11.06L21.29 11.06Q21.29 8.81 21.06 7.58Q20.83 6.36 20.33 5.88Q19.82 5.40 18.98 5.40L18.98 5.40Q18.14 5.40 17.63 5.88Q17.11 6.36 16.88 7.58Q16.66 8.81 16.66 11.06L16.66 11.06Q16.66 13.30 16.88 14.52Q17.11 15.74 17.63 16.22Q18.14 16.70 18.98 16.70ZM30.14 17.18L30.14 17.18Q28.97 17.18 28.03 16.91Q27.10 16.63 26.30 16.22L26.30 16.22L26.33 13.37L26.57 13.37L27.38 14.81Q27.91 15.77 28.55 16.24Q29.18 16.70 30.17 16.70L30.17 16.70Q31.32 16.70 32.03 16.19Q32.74 15.67 32.74 14.81L32.74 14.81Q32.74 14.02 32.23 13.51Q31.73 13.01 30.36 12.60L30.36 12.60L29.35 12.29Q27.89 11.86 27.05 10.94Q26.21 10.03 26.21 8.71L26.21 8.71Q26.21 7.13 27.46 6.02Q28.70 4.92 31.03 4.92L31.03 4.92Q31.97 4.92 32.80 5.12Q33.62 5.33 34.39 5.74L34.39 5.74L34.25 8.33L34.01 8.33L33.17 6.84Q32.71 6.05 32.27 5.72Q31.82 5.40 30.94 5.40L30.94 5.40Q30.12 5.40 29.40 5.86Q28.68 6.31 28.68 7.15L28.68 7.15Q28.68 7.97 29.29 8.45Q29.90 8.93 31.10 9.34L31.10 9.34L32.18 9.65Q33.91 10.18 34.66 11.10Q35.40 12.02 35.40 13.32L35.40 13.32Q35.40 15.07 34.02 16.13Q32.64 17.18 30.14 17.18ZM41.02 17.18L41.02 17.18Q39.48 17.18 38.63 16.42Q37.78 15.65 37.78 13.97L37.78 13.97L37.78 5.76L36.12 5.76L36.12 5.52L36.70 5.42Q37.44 5.26 37.98 4.94Q38.52 4.63 39.05 4.10L39.05 4.10L41.02 1.92L41.26 1.92L41.18 5.28L43.87 5.28L43.87 5.76L41.16 5.76L41.16 14.40Q41.16 15.24 41.53 15.67Q41.90 16.10 42.48 16.10L42.48 16.10Q42.98 16.10 43.37 15.85Q43.75 15.60 44.14 15.17L44.14 15.17L44.38 15.41Q43.90 16.22 43.06 16.70Q42.22 17.18 41.02 17.18ZM48.14 16.82L44.83 16.82L44.83 16.58L45.43 16.37Q45.91 16.18 46.18 15.90Q46.44 15.62 46.61 15.12L46.61 15.12L51.55 0.94L53.59 0.94L58.46 15.22Q58.66 15.74 58.90 16.02Q59.14 16.30 59.64 16.49L59.64 16.49L59.93 16.58L59.93 16.82L53.83 16.82L53.83 16.58L54.19 16.46Q54.70 16.27 54.80 15.92Q54.91 15.58 54.77 15.10L54.77 15.10L53.64 11.64L48.31 11.64L47.16 15.02Q46.99 15.55 47.05 15.86Q47.11 16.18 47.62 16.37L47.62 16.37L48.14 16.58L48.14 16.82ZM51.07 3.70L48.48 11.16L53.50 11.16L51.07 3.70ZM66.36 16.82L60.72 16.82L60.72 16.58L61.06 16.49Q61.90 16.25 61.90 15.31L61.90 15.31L61.90 7.80Q61.90 7.27 61.73 7.02Q61.56 6.77 61.08 6.67L61.08 6.67L60.72 6.58L60.72 6.34L64.82 4.94L65.06 5.18L65.26 6.62Q66.10 5.88 67.15 5.40Q68.21 4.92 69.24 4.92L69.24 4.92Q70.82 4.92 71.68 5.78Q72.53 6.65 72.53 8.42L72.53 8.42L72.53 15.34Q72.53 16.27 73.44 16.51L73.44 16.51L73.66 16.58L73.66 16.82L67.99 16.82L67.99 16.58L68.30 16.49Q69.14 16.22 69.14 15.31L69.14 15.31L69.14 7.66Q69.14 6.12 67.61 6.12L67.61 6.12Q66.55 6.12 65.30 7.18L65.30 7.18L65.30 15.34Q65.30 16.27 66.14 16.51L66.14 16.51L66.36 16.58L66.36 16.82ZM79.68 17.18L79.68 17.18Q78.26 17.18 77.14 16.55Q76.01 15.91 75.35 14.58Q74.69 13.25 74.69 11.16L74.69 11.16Q74.69 9.05 75.43 7.67Q76.18 6.29 77.40 5.60Q78.62 4.92 80.06 4.92L80.06 4.92Q80.90 4.92 81.67 5.09Q82.44 5.26 83.04 5.59L83.04 5.59L83.04 2.47Q83.04 1.97 82.88 1.73Q82.73 1.49 82.22 1.39L82.22 1.39L81.77 1.30L81.77 1.06L86.14 0L86.40 0.22L86.30 3.58L86.30 15.31Q86.30 15.79 86.47 16.09Q86.64 16.39 87.10 16.51L87.10 16.51L87.31 16.58L87.31 16.82L83.21 17.09L82.99 16.22Q82.34 16.66 81.52 16.92Q80.69 17.18 79.68 17.18ZM81.07 16.30L81.07 16.30Q82.08 16.30 82.92 15.70L82.92 15.70L82.92 6.17Q82.03 5.59 81.10 5.59L81.10 5.59Q79.94 5.59 79.13 6.92Q78.31 8.26 78.31 11.11L78.31 11.11Q78.31 13.97 79.08 15.13Q79.85 16.30 81.07 16.30ZM94.94 16.82L88.42 16.82L88.42 16.58L88.85 16.44Q89.33 16.27 89.50 15.98Q89.66 15.70 89.66 15.22L89.66 15.22Q89.69 13.78 89.69 12.31Q89.69 10.85 89.69 9.38L89.69 9.38L89.69 8.42Q89.69 6.98 89.69 5.53Q89.69 4.08 89.66 2.64L89.66 2.64Q89.66 2.16 89.53 1.87Q89.40 1.58 88.94 1.42L88.94 1.42L88.42 1.22L88.42 0.98L100.03 0.98L100.20 4.97L99.96 4.97L98.59 2.45Q98.35 1.99 98.04 1.73Q97.73 1.46 97.18 1.46L97.18 1.46L93.31 1.46Q93.29 3.17 93.29 4.94Q93.29 6.72 93.29 8.47L93.29 8.47L95.78 8.47Q96.34 8.47 96.60 8.23Q96.86 7.99 97.10 7.54L97.10 7.54L97.61 6.62L97.85 6.62L97.85 10.82L97.61 10.82L97.08 9.91Q96.84 9.48 96.59 9.22Q96.34 8.95 95.78 8.95L95.78 8.95L93.29 8.95Q93.29 10.63 93.29 12.16Q93.29 13.68 93.31 15.14L93.31 15.14Q93.31 16.08 94.22 16.37L94.22 16.37L94.94 16.58L94.94 16.82ZM107.35 17.18L107.35 17.18Q105.53 17.18 104.18 16.43Q102.84 15.67 102.11 14.28Q101.38 12.89 101.38 11.02L101.38 11.02Q101.38 9.14 102.16 7.78Q102.94 6.41 104.29 5.66Q105.65 4.92 107.35 4.92L107.35 4.92Q109.06 4.92 110.40 5.65Q111.74 6.38 112.52 7.75Q113.30 9.12 113.30 11.02L113.30 11.02Q113.30 12.91 112.57 14.29Q111.84 15.67 110.51 16.43Q109.18 17.18 107.35 17.18ZM107.35 16.70L107.35 16.70Q108.19 16.70 108.70 16.22Q109.20 15.74 109.43 14.52Q109.66 13.30 109.66 11.06L109.66 11.06Q109.66 8.81 109.43 7.58Q109.20 6.36 108.70 5.88Q108.19 5.40 107.35 5.40L107.35 5.40Q106.51 5.40 106.00 5.88Q105.48 6.36 105.25 7.58Q105.02 8.81 105.02 11.06L105.02 11.06Q105.02 13.30 105.25 14.52Q105.48 15.74 106.00 16.22Q106.51 16.70 107.35 16.70ZM118.70 17.18L118.70 17.18Q117.77 17.18 116.99 16.82Q116.21 16.46 115.76 15.66Q115.32 14.86 115.34 13.54L115.34 13.54L115.42 7.37Q115.42 6.82 115.22 6.58Q115.03 6.34 114.62 6.24L114.62 6.24L114.34 6.14L114.34 5.90L118.63 5.06L118.87 5.30L118.75 8.71L118.75 14.50Q118.75 15.26 119.20 15.62Q119.64 15.98 120.31 15.98L120.31 15.98Q120.98 15.98 121.51 15.79Q122.04 15.60 122.57 15.22L122.57 15.22L122.66 7.39Q122.66 6.84 122.50 6.61Q122.33 6.38 121.87 6.29L121.87 6.29L121.63 6.22L121.63 5.98L125.83 5.06L126.07 5.30L126 8.71L126 15.22Q126 15.74 126.14 16.03Q126.29 16.32 126.77 16.51L126.77 16.51L127.01 16.58L127.01 16.82L122.81 17.06L122.59 15.65Q121.80 16.30 120.88 16.74Q119.95 17.18 118.70 17.18ZM133.61 16.82L127.97 16.82L127.97 16.58L128.30 16.49Q129.14 16.25 129.14 15.31L129.14 15.31L129.14 7.80Q129.14 7.27 128.98 7.02Q128.81 6.77 128.33 6.67L128.33 6.67L127.97 6.58L127.97 6.34L132.07 4.94L132.31 5.18L132.50 6.62Q133.34 5.88 134.40 5.40Q135.46 4.92 136.49 4.92L136.49 4.92Q138.07 4.92 138.92 5.78Q139.78 6.65 139.78 8.42L139.78 8.42L139.78 15.34Q139.78 16.27 140.69 16.51L140.69 16.51L140.90 16.58L140.90 16.82L135.24 16.82L135.24 16.58L135.55 16.49Q136.39 16.22 136.39 15.31L136.39 15.31L136.39 7.66Q136.39 6.12 134.86 6.12L134.86 6.12Q133.80 6.12 132.55 7.18L132.55 7.18L132.55 15.34Q132.55 16.27 133.39 16.51L133.39 16.51L133.61 16.58L133.61 16.82ZM146.93 17.18L146.93 17.18Q145.51 17.18 144.38 16.55Q143.26 15.91 142.60 14.58Q141.94 13.25 141.94 11.16L141.94 11.16Q141.94 9.05 142.68 7.67Q143.42 6.29 144.65 5.60Q145.87 4.92 147.31 4.92L147.31 4.92Q148.15 4.92 148.92 5.09Q149.69 5.26 150.29 5.59L150.29 5.59L150.29 2.47Q150.29 1.97 150.13 1.73Q149.98 1.49 149.47 1.39L149.47 1.39L149.02 1.30L149.02 1.06L153.38 0L153.65 0.22L153.55 3.58L153.55 15.31Q153.55 15.79 153.72 16.09Q153.89 16.39 154.34 16.51L154.34 16.51L154.56 16.58L154.56 16.82L150.46 17.09L150.24 16.22Q149.59 16.66 148.76 16.92Q147.94 17.18 146.93 17.18ZM148.32 16.30L148.32 16.30Q149.33 16.30 150.17 15.70L150.17 15.70L150.17 6.17Q149.28 5.59 148.34 5.59L148.34 5.59Q147.19 5.59 146.38 6.92Q145.56 8.26 145.56 11.11L145.56 11.11Q145.56 13.97 146.33 15.13Q147.10 16.30 148.32 16.30ZM162.14 11.06L156.10 11.06L156.10 10.42L162.14 10.42L162.14 11.06ZM169.54 16.82L163.63 16.82L163.63 16.58L164.14 16.39Q164.90 16.08 164.90 15.17L164.90 15.17L164.90 2.64Q164.90 1.68 164.14 1.42L164.14 1.42L163.63 1.22L163.63 0.98L169.97 0.98Q172.51 0.98 174.35 1.93Q176.18 2.88 177.18 4.64Q178.18 6.41 178.18 8.88L178.18 8.88Q178.18 11.40 177.10 13.18Q176.02 14.95 174.08 15.89Q172.15 16.82 169.54 16.82L169.54 16.82ZM168.50 1.46L168.50 16.34L169.54 16.34Q171.26 16.34 172.32 15.66Q173.38 14.98 173.87 13.36Q174.36 11.74 174.36 8.90L174.36 8.90Q174.36 6.07 173.87 4.45Q173.38 2.83 172.34 2.15Q171.31 1.46 169.63 1.46L169.63 1.46L168.50 1.46ZM185.21 17.18L185.21 17.18Q183.38 17.18 182.04 16.43Q180.70 15.67 179.96 14.28Q179.23 12.89 179.23 11.02L179.23 11.02Q179.23 9.14 180.01 7.78Q180.79 6.41 182.15 5.66Q183.50 4.92 185.21 4.92L185.21 4.92Q186.91 4.92 188.26 5.65Q189.60 6.38 190.38 7.75Q191.16 9.12 191.16 11.02L191.16 11.02Q191.16 12.91 190.43 14.29Q189.70 15.67 188.36 16.43Q187.03 17.18 185.21 17.18ZM185.21 16.70L185.21 16.70Q186.05 16.70 186.55 16.22Q187.06 15.74 187.28 14.52Q187.51 13.30 187.51 11.06L187.51 11.06Q187.51 8.81 187.28 7.58Q187.06 6.36 186.55 5.88Q186.05 5.40 185.21 5.40L185.21 5.40Q184.37 5.40 183.85 5.88Q183.34 6.36 183.11 7.58Q182.88 8.81 182.88 11.06L182.88 11.06Q182.88 13.30 183.11 14.52Q183.34 15.74 183.85 16.22Q184.37 16.70 185.21 16.70ZM198.43 16.82L192.22 16.82L192.22 16.58L192.58 16.49Q193.06 16.34 193.24 16.06Q193.42 15.77 193.42 15.31L193.42 15.31L193.42 7.80Q193.42 7.27 193.24 7.02Q193.06 6.77 192.58 6.67L192.58 6.67L192.22 6.58L192.22 6.34L196.34 4.94L196.58 5.18L196.80 7.25L196.80 7.44Q197.14 6.77 197.68 6.20Q198.22 5.64 198.88 5.28Q199.54 4.92 200.18 4.92L200.18 4.92Q201.10 4.92 201.58 5.42Q202.06 5.93 202.06 6.70L202.06 6.70Q202.06 7.51 201.59 7.96Q201.12 8.40 200.47 8.40L200.47 8.40Q199.46 8.40 198.70 7.39L198.70 7.39L198.65 7.34Q198.41 7.01 198.10 6.97Q197.78 6.94 197.52 7.27L197.52 7.27Q197.28 7.49 197.12 7.79Q196.97 8.09 196.82 8.47L196.82 8.47L196.82 15.17Q196.82 16.13 197.66 16.37L197.66 16.37L198.43 16.58L198.43 16.82ZM208.44 16.82L202.80 16.82L202.80 16.58L203.14 16.49Q203.98 16.25 203.98 15.31L203.98 15.31L203.98 7.80Q203.98 7.27 203.81 7.02Q203.64 6.77 203.16 6.67L203.16 6.67L202.80 6.58L202.80 6.34L206.90 4.94L207.14 5.18L207.34 6.62Q208.18 5.88 209.23 5.40Q210.29 4.92 211.32 4.92L211.32 4.92Q212.90 4.92 213.76 5.78Q214.61 6.65 214.61 8.42L214.61 8.42L214.61 15.34Q214.61 16.27 215.52 16.51L215.52 16.51L215.74 16.58L215.74 16.82L210.07 16.82L210.07 16.58L210.38 16.49Q211.22 16.22 211.22 15.31L211.22 15.31L211.22 7.66Q211.22 6.12 209.69 6.12L209.69 6.12Q208.63 6.12 207.38 7.18L207.38 7.18L207.38 15.34Q207.38 16.27 208.22 16.51L208.22 16.51L208.44 16.58L208.44 16.82ZM221.16 16.27L220.78 17.14L216.72 16.82L216.72 16.58L216.96 16.54Q217.90 16.32 217.90 15.34L217.90 15.34L217.90 2.50Q217.90 1.99 217.74 1.73Q217.58 1.46 217.10 1.37L217.10 1.37L216.77 1.27L216.77 1.03L221.04 0L221.33 0.22L221.23 3.60L221.23 6.02Q222.02 5.47 222.96 5.20Q223.90 4.92 224.86 4.92L224.86 4.92Q226.22 4.92 227.28 5.56Q228.34 6.19 228.95 7.52Q229.56 8.86 229.56 10.94L229.56 10.94Q229.56 13.03 228.88 14.41Q228.19 15.79 227.05 16.49Q225.91 17.18 224.54 17.18L224.54 17.18Q223.66 17.18 222.76 16.94Q221.86 16.70 221.16 16.27L221.16 16.27ZM223.34 16.37L223.34 16.37Q224.11 16.37 224.69 15.89Q225.26 15.41 225.60 14.24Q225.94 13.08 225.94 11.04L225.94 11.04Q225.94 9.00 225.62 7.90Q225.31 6.79 224.75 6.36Q224.18 5.93 223.39 5.93L223.39 5.93Q222.26 5.93 221.30 6.55L221.30 6.55L221.30 15.77Q221.76 16.06 222.24 16.21Q222.72 16.37 223.34 16.37ZM233.50 3.67L233.50 3.67Q232.68 3.67 232.12 3.16Q231.55 2.64 231.55 1.85L231.55 1.85Q231.55 1.03 232.12 0.53Q232.68 0.02 233.50 0.02L233.50 0.02Q234.31 0.02 234.86 0.53Q235.42 1.03 235.42 1.85L235.42 1.85Q235.42 2.64 234.86 3.16Q234.31 3.67 233.50 3.67ZM236.28 16.82L230.66 16.82L230.66 16.58L231 16.49Q231.48 16.34 231.66 16.06Q231.84 15.77 231.84 15.29L231.84 15.29L231.84 7.78Q231.84 7.27 231.66 7.02Q231.48 6.77 231 6.67L231 6.67L230.66 6.60L230.66 6.36L235.06 4.94L235.30 5.18L235.22 8.59L235.22 15.31Q235.22 15.79 235.40 16.08Q235.58 16.37 236.04 16.51L236.04 16.51L236.28 16.58L236.28 16.82ZM243.55 16.82L237.34 16.82L237.34 16.58L237.70 16.49Q238.18 16.34 238.36 16.06Q238.54 15.77 238.54 15.31L238.54 15.31L238.54 7.80Q238.54 7.27 238.36 7.02Q238.18 6.77 237.70 6.67L237.70 6.67L237.34 6.58L237.34 6.34L241.46 4.94L241.70 5.18L241.92 7.25L241.92 7.44Q242.26 6.77 242.80 6.20Q243.34 5.64 244.00 5.28Q244.66 4.92 245.30 4.92L245.30 4.92Q246.22 4.92 246.70 5.42Q247.18 5.93 247.18 6.70L247.18 6.70Q247.18 7.51 246.71 7.96Q246.24 8.40 245.59 8.40L245.59 8.40Q244.58 8.40 243.82 7.39L243.82 7.39L243.77 7.34Q243.53 7.01 243.22 6.97Q242.90 6.94 242.64 7.27L242.64 7.27Q242.40 7.49 242.24 7.79Q242.09 8.09 241.94 8.47L241.94 8.47L241.94 15.17Q241.94 16.13 242.78 16.37L242.78 16.37L243.55 16.58L243.55 16.82ZM253.56 16.82L247.92 16.82L247.92 16.58L248.26 16.49Q249.10 16.25 249.10 15.31L249.10 15.31L249.10 7.80Q249.10 7.27 248.93 7.02Q248.76 6.77 248.28 6.67L248.28 6.67L247.92 6.58L247.92 6.34L252.02 4.94L252.26 5.18L252.46 6.62Q253.30 5.88 254.35 5.40Q255.41 4.92 256.44 4.92L256.44 4.92Q258.02 4.92 258.88 5.78Q259.73 6.65 259.73 8.42L259.73 8.42L259.73 15.34Q259.73 16.27 260.64 16.51L260.64 16.51L260.86 16.58L260.86 16.82L255.19 16.82L255.19 16.58L255.50 16.49Q256.34 16.22 256.34 15.31L256.34 15.31L256.34 7.66Q256.34 6.12 254.81 6.12L254.81 6.12Q253.75 6.12 252.50 7.18L252.50 7.18L252.50 15.34Q252.50 16.27 253.34 16.51L253.34 16.51L253.56 16.58L253.56 16.82Z" transform="translate(0, 48)"></path></svg>